<?xml version="1.0" ?><svg height="100" id="svg2" version="1.1" width="100" xmlns="http://www.w3.org/2000/svg" xmlns:cc="http://creativecommons.org/ns#" xmlns:dc="http://purl.org/dc/elements/1.1/" xmlns:inkscape="http://www.inkscape.org/namespaces/inkscape" xmlns:rdf="http://www.w3.org/1999/02/22-rdf-syntax-ns#" xmlns:sodipodi="http://sodipodi.sourceforge.net/DTD/sodipodi-0.dtd" xmlns:svg="http://www.w3.org/2000/svg" xmlns:xlink="http://www.w3.org/1999/xlink"><defs id="defs4"><linearGradient id="linearGradient11707"><stop id="stop11709" offset="0" style="stop-color:#1b713a;stop-opacity:1;"/><stop id="stop11711" offset="1" style="stop-color:#1b713a;stop-opacity:0;"/></linearGradient><linearGradient id="linearGradient11587"><stop id="stop11589" offset="0" style="stop-color:#a42a04;stop-opacity:1;"/><stop id="stop11591" offset="1" style="stop-color:#a42a04;stop-opacity:0;"/></linearGradient><linearGradient id="linearGradient11482"><stop id="stop11484" offset="0" style="stop-color:#bbaa03;stop-opacity:1;"/><stop id="stop11486" offset="1" style="stop-color:#bbaa03;stop-opacity:0;"/></linearGradient><linearGradient id="linearGradient11339"><stop id="stop11341" offset="0" style="stop-color:#bd4105;stop-opacity:1;"/><stop id="stop11343" offset="1" style="stop-color:#bd4105;stop-opacity:0;"/></linearGradient><linearGradient id="linearGradient11126"><stop id="stop11128" offset="0" style="stop-color:#b94005;stop-opacity:1;"/><stop id="stop11130" offset="1" style="stop-color:#b94005;stop-opacity:0;"/></linearGradient><linearGradient id="linearGradient11030"><stop id="stop11032" offset="0" style="stop-color:#28aecb;stop-opacity:1;"/><stop id="stop11034" offset="1" style="stop-color:#28aecb;stop-opacity:0;"/></linearGradient><linearGradient id="linearGradient9822"><stop id="stop9824" offset="0" style="stop-color:#1b8544;stop-opacity:1;"/><stop id="stop9826" offset="1" style="stop-color:#1b8544;stop-opacity:0;"/></linearGradient><linearGradient id="linearGradient9387"><stop id="stop9389" offset="0" style="stop-color:#a22a04;stop-opacity:1;"/><stop id="stop9391" offset="1" style="stop-color:#a22a04;stop-opacity:0;"/></linearGradient><linearGradient id="linearGradient9237"><stop id="stop9239" offset="0" style="stop-color:#01b9df;stop-opacity:1;"/><stop id="stop9241" offset="1" style="stop-color:#01b9df;stop-opacity:0;"/></linearGradient><linearGradient id="linearGradient8982"><stop id="stop8984" offset="0" style="stop-color:#121b24;stop-opacity:1;"/><stop id="stop8986" offset="1" style="stop-color:#121b24;stop-opacity:0;"/></linearGradient><linearGradient id="linearGradient8885"><stop id="stop8887" offset="0" style="stop-color:#d93727;stop-opacity:1;"/><stop id="stop8889" offset="1" style="stop-color:#d93727;stop-opacity:0;"/></linearGradient><linearGradient id="linearGradient8693"><stop id="stop8695" offset="0" style="stop-color:#1b793e;stop-opacity:1;"/><stop id="stop8697" offset="1" style="stop-color:#1b793e;stop-opacity:0;"/></linearGradient><linearGradient id="linearGradient8514"><stop id="stop8516" offset="0" style="stop-color:#cc9500;stop-opacity:1;"/><stop id="stop8518" offset="1" style="stop-color:#cc9500;stop-opacity:0;"/></linearGradient><linearGradient id="linearGradient8401"><stop id="stop8403" offset="0" style="stop-color:#0893cc;stop-opacity:1;"/><stop id="stop8405" offset="1" style="stop-color:#0893cc;stop-opacity:0;"/></linearGradient><linearGradient gradientUnits="userSpaceOnUse" id="linearGradient8407" x1="40" x2="95" xlink:href="#linearGradient8401" y1="35" y2="70"/><clipPath clipPathUnits="userSpaceOnUse" id="clipPath8417"><path d="M 95,50 A 45,45 0 1 1 5,50 45,45 0 1 1 95,50 z" id="path8419" style="fill:#1db4f7;fill-opacity:1;stroke:none"/></clipPath><linearGradient gradientUnits="userSpaceOnUse" id="linearGradient8520" x1="30" x2="85" xlink:href="#linearGradient8514" y1="45" y2="100"/><clipPath clipPathUnits="userSpaceOnUse" id="clipPath8524"><path d="M 95,50 A 45,45 0 1 1 5,50 45,45 0 1 1 95,50 z" id="path8526" style="fill:#ffaf00;fill-opacity:1;stroke:none"/></clipPath><linearGradient gradientUnits="userSpaceOnUse" id="linearGradient8699" x1="30" x2="85" xlink:href="#linearGradient8693" y1="30" y2="85"/><clipPath clipPathUnits="userSpaceOnUse" id="clipPath8703"><path d="M 95,50 A 45,45 0 1 1 5,50 45,45 0 1 1 95,50 z" id="path8705" style="fill:#1bad58;fill-opacity:1;stroke:none"/></clipPath><clipPath clipPathUnits="userSpaceOnUse" id="clipPath8873"><path d="M 95,50 A 45,45 0 1 1 5,50 45,45 0 1 1 95,50 z" id="path8875" style="fill:#ff4c36;fill-opacity:1;stroke:none"/></clipPath><linearGradient gradientUnits="userSpaceOnUse" id="linearGradient8891" x1="50" x2="85" xlink:href="#linearGradient8885" y1="30" y2="65"/><clipPath clipPathUnits="userSpaceOnUse" id="clipPath8978"><path d="M 95,50 A 45,45 0 1 1 5,50 45,45 0 1 1 95,50 z" id="path8980" style="fill:#323b44;fill-opacity:1;stroke:none"/></clipPath><linearGradient gradientUnits="userSpaceOnUse" id="linearGradient8988" x1="45" x2="95" xlink:href="#linearGradient8982" y1="25" y2="75"/><linearGradient gradientUnits="userSpaceOnUse" id="linearGradient9243" x1="50" x2="120" xlink:href="#linearGradient9237" y1="20" y2="90"/><clipPath clipPathUnits="userSpaceOnUse" id="clipPath9247"><path d="M 95,50 A 45,45 0 1 1 5,50 45,45 0 1 1 95,50 z" id="path9249" style="fill:#24d8fe;fill-opacity:1;stroke:none"/></clipPath><linearGradient gradientUnits="userSpaceOnUse" id="linearGradient9393" x1="45" x2="105" xlink:href="#linearGradient9387" y1="15" y2="75"/><clipPath clipPathUnits="userSpaceOnUse" id="clipPath9397"><path d="M 95,50 A 45,45 0 1 1 5,50 45,45 0 1 1 95,50 z" id="path9399" style="fill:#d92b04;fill-opacity:1;stroke:none"/></clipPath><linearGradient gradientUnits="userSpaceOnUse" id="linearGradient9828" x1="40" x2="95" xlink:href="#linearGradient9822" y1="25" y2="80"/><clipPath clipPathUnits="userSpaceOnUse" id="clipPath9832"><path d="M 95,50 A 45,45 0 1 1 5,50 45,45 0 1 1 95,50 z" id="path9834" style="fill:#1bad58;fill-opacity:1;stroke:none"/></clipPath><clipPath clipPathUnits="userSpaceOnUse" id="clipPath9967"><path d="M 95,50 A 45,45 0 1 1 5,50 45,45 0 1 1 95,50 z" id="path9969" style="fill:#1db4f7;fill-opacity:1;stroke:none"/></clipPath><clipPath clipPathUnits="userSpaceOnUse" id="clipPath10939"><path d="M 95,50 A 45,45 0 1 1 5,50 45,45 0 1 1 95,50 z" id="path10941" style="fill:#1bad58;fill-opacity:1;stroke:none" transform="translate(-3,0)"/></clipPath><linearGradient gradientUnits="userSpaceOnUse" id="linearGradient11036" x1="52" x2="92" xlink:href="#linearGradient11030" y1="30" y2="70"/><linearGradient gradientUnits="userSpaceOnUse" id="linearGradient11132" x1="45" x2="95" xlink:href="#linearGradient11126" y1="30" y2="80"/><clipPath clipPathUnits="userSpaceOnUse" id="clipPath11136"><path d="M 95,50 A 45,45 0 1 1 5,50 45,45 0 1 1 95,50 z" id="path11138" style="fill:#f25c05;fill-opacity:1;stroke:none"/></clipPath><linearGradient gradientUnits="userSpaceOnUse" id="linearGradient11345" x1="50" x2="95" xlink:href="#linearGradient11339" y1="30" y2="75"/><clipPath clipPathUnits="userSpaceOnUse" id="clipPath11349"><path d="M 95,50 A 45,45 0 1 1 5,50 45,45 0 1 1 95,50 z" id="path11351" style="fill:#f25c05;fill-opacity:1;stroke:none"/></clipPath><linearGradient gradientUnits="userSpaceOnUse" id="linearGradient11488" x1="50" x2="100" xlink:href="#linearGradient11482" y1="20" y2="70"/><clipPath clipPathUnits="userSpaceOnUse" id="clipPath11492"><path d="M 95,50 A 45,45 0 1 1 5,50 45,45 0 1 1 95,50 z" id="path11494" style="fill:#f2e103;fill-opacity:1;stroke:none"/></clipPath><linearGradient gradientUnits="userSpaceOnUse" id="linearGradient11593" x1="45" x2="95" xlink:href="#linearGradient11587" y1="30" y2="80"/><clipPath clipPathUnits="userSpaceOnUse" id="clipPath11597"><path d="M 95,50 A 45,45 0 1 1 5,50 45,45 0 1 1 95,50 z" id="path11599" style="fill:#d92b04;fill-opacity:1;stroke:none"/></clipPath><clipPath clipPathUnits="userSpaceOnUse" id="clipPath11703"><path d="M 95,50 A 45,45 0 1 1 5,50 45,45 0 1 1 95,50 z" id="path11705" style="fill:#1bad58;fill-opacity:1;stroke:none"/></clipPath><linearGradient gradientUnits="userSpaceOnUse" id="linearGradient11713" x1="50" x2="95" xlink:href="#linearGradient11707" y1="30" y2="75"/></defs><g id="layer1" transform="translate(0,-952.36218)"><path d="M 95,50 A 45,45 0 1 1 5,50 45,45 0 1 1 95,50 z" id="path7725" style="fill:#1bad58;fill-opacity:1;stroke:none" transform="translate(0,952.36218)"/><path clip-path="url(#clipPath11703)" d="M 55,100 24,69 39,59 31,51 56,34 l -2,-2 7,0 8,8 7,-7 24,24 -20,38 z" id="path11697" style="color:#000000;fill:url(#linearGradient11713);stroke:none;stroke-width:1px;stroke-linecap:butt;stroke-linejoin:miter;stroke-miterlimit:4;stroke-opacity:1;stroke-dasharray:none;stroke-dashoffset:0;marker:none;visibility:visible;display:inline;overflow:visible;enable-background:accumulate;fill-opacity:1" transform="translate(0,952.36218)"/><path d="M 26,76 z" id="path8964" style="color:#000000;fill:none;stroke:#000000;stroke-width:1px;stroke-linecap:butt;stroke-linejoin:miter;stroke-miterlimit:4;stroke-opacity:1;stroke-dasharray:none;stroke-dashoffset:0;marker:none;visibility:visible;display:inline;overflow:visible;enable-background:accumulate" transform="translate(0,952.36218)"/><g id="g4140" style="stroke:#ffffff;stroke-opacity:1" transform="translate(20,971.98075)"><path d="m 5,49 15,-10 10,-3 10,-12 9,-2 6,-8 0,35 z" id="path5818" style="color:#000000;fill:none;stroke:#ffffff;stroke-width:2.5;stroke-linecap:round;stroke-linejoin:round;stroke-miterlimit:4;stroke-opacity:1;stroke-dasharray:none;stroke-dashoffset:0;marker:none;visibility:visible;display:inline;overflow:visible;enable-background:accumulate"/><path d="m 12,31 27.721649,-18.344214 0,0 -0.892926,4.919622 0.892926,-4.919622 -4.919622,-0.892927" id="path5824" style="color:#000000;fill:none;stroke:#ffffff;stroke-width:2.5;stroke-linecap:round;stroke-linejoin:round;stroke-miterlimit:4;stroke-opacity:1;stroke-dasharray:none;stroke-dashoffset:0;marker:none;visibility:visible;display:inline;overflow:visible;enable-background:accumulate"/><path d="m 49,29 0,15" id="path5826" style="color:#000000;fill:none;stroke:#ffffff;stroke-width:1px;stroke-linecap:round;stroke-linejoin:round;stroke-miterlimit:4;stroke-opacity:1;stroke-dasharray:none;stroke-dashoffset:0;marker:none;visibility:visible;display:inline;overflow:visible;enable-background:accumulate"/><path d="m 40,34 0,10" id="path5828" style="color:#000000;fill:none;stroke:#ffffff;stroke-width:1px;stroke-linecap:round;stroke-linejoin:round;stroke-miterlimit:4;stroke-opacity:1;stroke-dasharray:none;stroke-dashoffset:0;marker:none;visibility:visible;display:inline;overflow:visible;enable-background:accumulate"/><path d="m 30,41 0,3" id="path5830" style="color:#000000;fill:none;stroke:#ffffff;stroke-width:1px;stroke-linecap:round;stroke-linejoin:round;stroke-miterlimit:4;stroke-opacity:1;stroke-dasharray:none;stroke-dashoffset:0;marker:none;visibility:visible;display:inline;overflow:visible;enable-background:accumulate"/><path d="m 20,43 0,1" id="path5832" style="color:#000000;fill:none;stroke:#ffffff;stroke-width:1px;stroke-linecap:round;stroke-linejoin:round;stroke-miterlimit:4;stroke-opacity:1;stroke-dasharray:none;stroke-dashoffset:0;marker:none;visibility:visible;display:inline;overflow:visible;enable-background:accumulate"/></g></g></svg>